<mxfile host="app.diagrams.net" modified="2022-08-28T15:43:57.795Z" agent="5.0 (Windows NT 10.0; Win64; x64) AppleWebKit/537.36 (KHTML, like Gecko) Chrome/104.0.0.0 Safari/537.36" etag="GzHyB8NMT1ZBkW9WA6i1" version="20.2.7" type="github">
  <diagram id="cW3hNWCqMzdaBsSh43Cp" name="第 1 页">
    <mxGraphModel dx="1185" dy="662" grid="1" gridSize="10" guides="1" tooltips="1" connect="1" arrows="1" fold="1" page="1" pageScale="1" pageWidth="827" pageHeight="1169" math="0" shadow="0">
      <root>
        <mxCell id="0" />
        <mxCell id="1" parent="0" />
        <mxCell id="ZtITf0q7EkavqMJ6NfDz-1" value="Job" style="swimlane;fontStyle=0;childLayout=stackLayout;horizontal=1;startSize=26;fillColor=none;horizontalStack=0;resizeParent=1;resizeParentMax=0;resizeLast=0;collapsible=1;marginBottom=0;" vertex="1" parent="1">
          <mxGeometry x="30" y="190" width="290" height="502" as="geometry" />
        </mxCell>
        <mxCell id="ZtITf0q7EkavqMJ6NfDz-2" value="+ name:string" style="text;strokeColor=#b85450;fillColor=#f8cecc;align=left;verticalAlign=top;spacingLeft=4;spacingRight=4;overflow=hidden;rotatable=0;points=[[0,0.5],[1,0.5]];portConstraint=eastwest;" vertex="1" parent="ZtITf0q7EkavqMJ6NfDz-1">
          <mxGeometry y="26" width="290" height="26" as="geometry" />
        </mxCell>
        <mxCell id="ZtITf0q7EkavqMJ6NfDz-3" value="+ createJobFunc():Job" style="text;strokeColor=#b85450;fillColor=#f8cecc;align=left;verticalAlign=top;spacingLeft=4;spacingRight=4;overflow=hidden;rotatable=0;points=[[0,0.5],[1,0.5]];portConstraint=eastwest;" vertex="1" parent="ZtITf0q7EkavqMJ6NfDz-1">
          <mxGeometry y="52" width="290" height="26" as="geometry" />
        </mxCell>
        <mxCell id="ZtITf0q7EkavqMJ6NfDz-4" value="+ uid:string" style="text;strokeColor=none;fillColor=none;align=left;verticalAlign=top;spacingLeft=4;spacingRight=4;overflow=hidden;rotatable=0;points=[[0,0.5],[1,0.5]];portConstraint=eastwest;" vertex="1" parent="ZtITf0q7EkavqMJ6NfDz-1">
          <mxGeometry y="78" width="290" height="26" as="geometry" />
        </mxCell>
        <mxCell id="ZtITf0q7EkavqMJ6NfDz-5" value="+ inputParamsType:&lt;string,string&gt;" style="text;strokeColor=none;fillColor=none;align=left;verticalAlign=top;spacingLeft=4;spacingRight=4;overflow=hidden;rotatable=0;points=[[0,0.5],[1,0.5]];portConstraint=eastwest;fontColor=#6666FF;" vertex="1" parent="ZtITf0q7EkavqMJ6NfDz-1">
          <mxGeometry y="104" width="290" height="26" as="geometry" />
        </mxCell>
        <mxCell id="ZtITf0q7EkavqMJ6NfDz-6" value="+ inputParams:&lt;string,Param&gt;" style="text;strokeColor=none;fillColor=none;align=left;verticalAlign=top;spacingLeft=4;spacingRight=4;overflow=hidden;rotatable=0;points=[[0,0.5],[1,0.5]];portConstraint=eastwest;" vertex="1" parent="ZtITf0q7EkavqMJ6NfDz-1">
          <mxGeometry y="130" width="290" height="26" as="geometry" />
        </mxCell>
        <mxCell id="ZtITf0q7EkavqMJ6NfDz-7" value="+ defaultInputParams:&lt;string,Param&gt;" style="text;strokeColor=none;fillColor=none;align=left;verticalAlign=top;spacingLeft=4;spacingRight=4;overflow=hidden;rotatable=0;points=[[0,0.5],[1,0.5]];portConstraint=eastwest;fontColor=#6666FF;" vertex="1" parent="ZtITf0q7EkavqMJ6NfDz-1">
          <mxGeometry y="156" width="290" height="26" as="geometry" />
        </mxCell>
        <mxCell id="ZtITf0q7EkavqMJ6NfDz-8" value="+ inputParamCallback:&lt;string, callback&gt;" style="text;strokeColor=none;fillColor=none;align=left;verticalAlign=top;spacingLeft=4;spacingRight=4;overflow=hidden;rotatable=0;points=[[0,0.5],[1,0.5]];portConstraint=eastwest;" vertex="1" parent="ZtITf0q7EkavqMJ6NfDz-1">
          <mxGeometry y="182" width="290" height="26" as="geometry" />
        </mxCell>
        <mxCell id="ZtITf0q7EkavqMJ6NfDz-9" value="+ outputParamatersType&lt;string,string&gt;" style="text;strokeColor=none;fillColor=none;align=left;verticalAlign=top;spacingLeft=4;spacingRight=4;overflow=hidden;rotatable=0;points=[[0,0.5],[1,0.5]];portConstraint=eastwest;fontColor=#6666FF;" vertex="1" parent="ZtITf0q7EkavqMJ6NfDz-1">
          <mxGeometry y="208" width="290" height="26" as="geometry" />
        </mxCell>
        <mxCell id="ZtITf0q7EkavqMJ6NfDz-10" value="+ callbacks:&lt;string,callbacks&gt;[del,bind、start、end]" style="text;strokeColor=none;fillColor=none;align=left;verticalAlign=top;spacingLeft=4;spacingRight=4;overflow=hidden;rotatable=0;points=[[0,0.5],[1,0.5]];portConstraint=eastwest;fontColor=#000000;" vertex="1" parent="ZtITf0q7EkavqMJ6NfDz-1">
          <mxGeometry y="234" width="290" height="26" as="geometry" />
        </mxCell>
        <mxCell id="ZtITf0q7EkavqMJ6NfDz-11" value="" style="line;strokeWidth=1;fillColor=none;align=left;verticalAlign=middle;spacingTop=-1;spacingLeft=3;spacingRight=3;rotatable=0;labelPosition=right;points=[];portConstraint=eastwest;fontColor=#000000;" vertex="1" parent="ZtITf0q7EkavqMJ6NfDz-1">
          <mxGeometry y="260" width="290" height="8" as="geometry" />
        </mxCell>
        <mxCell id="ZtITf0q7EkavqMJ6NfDz-13" value="+ _init()" style="text;strokeColor=none;fillColor=none;align=left;verticalAlign=top;spacingLeft=4;spacingRight=4;overflow=hidden;rotatable=0;points=[[0,0.5],[1,0.5]];portConstraint=eastwest;fontColor=#6666FF;" vertex="1" parent="ZtITf0q7EkavqMJ6NfDz-1">
          <mxGeometry y="268" width="290" height="26" as="geometry" />
        </mxCell>
        <mxCell id="ZtITf0q7EkavqMJ6NfDz-14" value="+ _work()" style="text;strokeColor=none;fillColor=none;align=left;verticalAlign=top;spacingLeft=4;spacingRight=4;overflow=hidden;rotatable=0;points=[[0,0.5],[1,0.5]];portConstraint=eastwest;fontColor=#6666FF;" vertex="1" parent="ZtITf0q7EkavqMJ6NfDz-1">
          <mxGeometry y="294" width="290" height="26" as="geometry" />
        </mxCell>
        <mxCell id="ZtITf0q7EkavqMJ6NfDz-15" value="+ addCallback(Callback,string)" style="text;strokeColor=none;fillColor=none;align=left;verticalAlign=top;spacingLeft=4;spacingRight=4;overflow=hidden;rotatable=0;points=[[0,0.5],[1,0.5]];portConstraint=eastwest;fontColor=#000000;" vertex="1" parent="ZtITf0q7EkavqMJ6NfDz-1">
          <mxGeometry y="320" width="290" height="26" as="geometry" />
        </mxCell>
        <mxCell id="ZtITf0q7EkavqMJ6NfDz-16" value="+ removeCallback(Callback)" style="text;strokeColor=none;fillColor=none;align=left;verticalAlign=top;spacingLeft=4;spacingRight=4;overflow=hidden;rotatable=0;points=[[0,0.5],[1,0.5]];portConstraint=eastwest;fontColor=#000000;" vertex="1" parent="ZtITf0q7EkavqMJ6NfDz-1">
          <mxGeometry y="346" width="290" height="26" as="geometry" />
        </mxCell>
        <mxCell id="ZtITf0q7EkavqMJ6NfDz-17" value="+ setDefaultValue(string key,Object value)" style="text;strokeColor=none;fillColor=none;align=left;verticalAlign=top;spacingLeft=4;spacingRight=4;overflow=hidden;rotatable=0;points=[[0,0.5],[1,0.5]];portConstraint=eastwest;fontColor=#000000;" vertex="1" parent="ZtITf0q7EkavqMJ6NfDz-1">
          <mxGeometry y="372" width="290" height="26" as="geometry" />
        </mxCell>
        <mxCell id="ZtITf0q7EkavqMJ6NfDz-18" value="+ bindInputParam(string key,Param param)" style="text;strokeColor=none;fillColor=none;align=left;verticalAlign=top;spacingLeft=4;spacingRight=4;overflow=hidden;rotatable=0;points=[[0,0.5],[1,0.5]];portConstraint=eastwest;fontColor=#000000;" vertex="1" parent="ZtITf0q7EkavqMJ6NfDz-1">
          <mxGeometry y="398" width="290" height="26" as="geometry" />
        </mxCell>
        <mxCell id="ZtITf0q7EkavqMJ6NfDz-19" value="+ outPutParam(string key):Param" style="text;strokeColor=none;fillColor=none;align=left;verticalAlign=top;spacingLeft=4;spacingRight=4;overflow=hidden;rotatable=0;points=[[0,0.5],[1,0.5]];portConstraint=eastwest;fontColor=#000000;" vertex="1" parent="ZtITf0q7EkavqMJ6NfDz-1">
          <mxGeometry y="424" width="290" height="26" as="geometry" />
        </mxCell>
        <mxCell id="ZtITf0q7EkavqMJ6NfDz-20" value="+ isReady():bool" style="text;strokeColor=none;fillColor=none;align=left;verticalAlign=top;spacingLeft=4;spacingRight=4;overflow=hidden;rotatable=0;points=[[0,0.5],[1,0.5]];portConstraint=eastwest;fontColor=#000000;" vertex="1" parent="ZtITf0q7EkavqMJ6NfDz-1">
          <mxGeometry y="450" width="290" height="26" as="geometry" />
        </mxCell>
        <mxCell id="ZtITf0q7EkavqMJ6NfDz-21" value="+ work(): void" style="text;strokeColor=none;fillColor=none;align=left;verticalAlign=top;spacingLeft=4;spacingRight=4;overflow=hidden;rotatable=0;points=[[0,0.5],[1,0.5]];portConstraint=eastwest;fontColor=#000000;" vertex="1" parent="ZtITf0q7EkavqMJ6NfDz-1">
          <mxGeometry y="476" width="290" height="26" as="geometry" />
        </mxCell>
        <mxCell id="ZtITf0q7EkavqMJ6NfDz-23" value="Param" style="swimlane;fontStyle=1;align=center;verticalAlign=top;childLayout=stackLayout;horizontal=1;startSize=26;horizontalStack=0;resizeParent=1;resizeParentMax=0;resizeLast=0;collapsible=1;marginBottom=0;fontColor=#000000;fillColor=default;" vertex="1" parent="1">
          <mxGeometry x="480" y="260" width="310" height="302" as="geometry" />
        </mxCell>
        <mxCell id="ZtITf0q7EkavqMJ6NfDz-24" value="+ p_type:string" style="text;strokeColor=#b85450;fillColor=#f8cecc;align=left;verticalAlign=top;spacingLeft=4;spacingRight=4;overflow=hidden;rotatable=0;points=[[0,0.5],[1,0.5]];portConstraint=eastwest;" vertex="1" parent="ZtITf0q7EkavqMJ6NfDz-23">
          <mxGeometry y="26" width="310" height="26" as="geometry" />
        </mxCell>
        <mxCell id="ZtITf0q7EkavqMJ6NfDz-27" value="+ createParamFunc: Param" style="text;strokeColor=#b85450;fillColor=#f8cecc;align=left;verticalAlign=top;spacingLeft=4;spacingRight=4;overflow=hidden;rotatable=0;points=[[0,0.5],[1,0.5]];portConstraint=eastwest;" vertex="1" parent="ZtITf0q7EkavqMJ6NfDz-23">
          <mxGeometry y="52" width="310" height="26" as="geometry" />
        </mxCell>
        <mxCell id="ZtITf0q7EkavqMJ6NfDz-25" value="" style="line;strokeWidth=1;fillColor=none;align=left;verticalAlign=middle;spacingTop=-1;spacingLeft=3;spacingRight=3;rotatable=0;labelPosition=right;points=[];portConstraint=eastwest;fontColor=#000000;" vertex="1" parent="ZtITf0q7EkavqMJ6NfDz-23">
          <mxGeometry y="78" width="310" height="8" as="geometry" />
        </mxCell>
        <mxCell id="ZtITf0q7EkavqMJ6NfDz-26" value="+ uid:string" style="text;strokeColor=none;fillColor=none;align=left;verticalAlign=top;spacingLeft=4;spacingRight=4;overflow=hidden;rotatable=0;points=[[0,0.5],[1,0.5]];portConstraint=eastwest;fontColor=#000000;" vertex="1" parent="ZtITf0q7EkavqMJ6NfDz-23">
          <mxGeometry y="86" width="310" height="26" as="geometry" />
        </mxCell>
        <mxCell id="ZtITf0q7EkavqMJ6NfDz-30" value="+ callbacks:&lt;string,callbacks&gt;[del、value]" style="text;strokeColor=none;fillColor=none;align=left;verticalAlign=top;spacingLeft=4;spacingRight=4;overflow=hidden;rotatable=0;points=[[0,0.5],[1,0.5]];portConstraint=eastwest;fontColor=#000000;" vertex="1" parent="ZtITf0q7EkavqMJ6NfDz-23">
          <mxGeometry y="112" width="310" height="26" as="geometry" />
        </mxCell>
        <mxCell id="ZtITf0q7EkavqMJ6NfDz-31" value="+ value:Object" style="text;strokeColor=none;fillColor=none;align=left;verticalAlign=top;spacingLeft=4;spacingRight=4;overflow=hidden;rotatable=0;points=[[0,0.5],[1,0.5]];portConstraint=eastwest;fontColor=#000000;" vertex="1" parent="ZtITf0q7EkavqMJ6NfDz-23">
          <mxGeometry y="138" width="310" height="26" as="geometry" />
        </mxCell>
        <mxCell id="ZtITf0q7EkavqMJ6NfDz-29" value="" style="line;strokeWidth=1;fillColor=none;align=left;verticalAlign=middle;spacingTop=-1;spacingLeft=3;spacingRight=3;rotatable=0;labelPosition=right;points=[];portConstraint=eastwest;fontColor=#000000;" vertex="1" parent="ZtITf0q7EkavqMJ6NfDz-23">
          <mxGeometry y="164" width="310" height="8" as="geometry" />
        </mxCell>
        <mxCell id="ZtITf0q7EkavqMJ6NfDz-28" value="+ isValid():bool" style="text;strokeColor=none;fillColor=none;align=left;verticalAlign=top;spacingLeft=4;spacingRight=4;overflow=hidden;rotatable=0;points=[[0,0.5],[1,0.5]];portConstraint=eastwest;fontColor=#000000;" vertex="1" parent="ZtITf0q7EkavqMJ6NfDz-23">
          <mxGeometry y="172" width="310" height="26" as="geometry" />
        </mxCell>
        <mxCell id="ZtITf0q7EkavqMJ6NfDz-32" value="+ checkValue(Object):bool" style="text;strokeColor=none;fillColor=none;align=left;verticalAlign=top;spacingLeft=4;spacingRight=4;overflow=hidden;rotatable=0;points=[[0,0.5],[1,0.5]];portConstraint=eastwest;fontColor=#6666FF;" vertex="1" parent="ZtITf0q7EkavqMJ6NfDz-23">
          <mxGeometry y="198" width="310" height="26" as="geometry" />
        </mxCell>
        <mxCell id="ZtITf0q7EkavqMJ6NfDz-33" value="+ setValue(Object value):bool" style="text;strokeColor=none;fillColor=none;align=left;verticalAlign=top;spacingLeft=4;spacingRight=4;overflow=hidden;rotatable=0;points=[[0,0.5],[1,0.5]];portConstraint=eastwest;fontColor=#6666FF;" vertex="1" parent="ZtITf0q7EkavqMJ6NfDz-23">
          <mxGeometry y="224" width="310" height="26" as="geometry" />
        </mxCell>
        <mxCell id="ZtITf0q7EkavqMJ6NfDz-34" value="+ addCallback(Callback,string)" style="text;strokeColor=none;fillColor=none;align=left;verticalAlign=top;spacingLeft=4;spacingRight=4;overflow=hidden;rotatable=0;points=[[0,0.5],[1,0.5]];portConstraint=eastwest;fontColor=#000000;" vertex="1" parent="ZtITf0q7EkavqMJ6NfDz-23">
          <mxGeometry y="250" width="310" height="26" as="geometry" />
        </mxCell>
        <mxCell id="ZtITf0q7EkavqMJ6NfDz-35" value="+ removeCallback(Callback)" style="text;strokeColor=none;fillColor=none;align=left;verticalAlign=top;spacingLeft=4;spacingRight=4;overflow=hidden;rotatable=0;points=[[0,0.5],[1,0.5]];portConstraint=eastwest;fontColor=#000000;" vertex="1" parent="ZtITf0q7EkavqMJ6NfDz-23">
          <mxGeometry y="276" width="310" height="26" as="geometry" />
        </mxCell>
        <mxCell id="ZtITf0q7EkavqMJ6NfDz-36" value="Callback" style="swimlane;fontStyle=1;align=center;verticalAlign=top;childLayout=stackLayout;horizontal=1;startSize=26;horizontalStack=0;resizeParent=1;resizeParentMax=0;resizeLast=0;collapsible=1;marginBottom=0;fontColor=#000000;fillColor=default;" vertex="1" parent="1">
          <mxGeometry x="390" y="80" width="160" height="52" as="geometry" />
        </mxCell>
        <mxCell id="ZtITf0q7EkavqMJ6NfDz-40" value="+ uid:string" style="text;strokeColor=none;fillColor=none;align=left;verticalAlign=top;spacingLeft=4;spacingRight=4;overflow=hidden;rotatable=0;points=[[0,0.5],[1,0.5]];portConstraint=eastwest;fontColor=#000000;" vertex="1" parent="ZtITf0q7EkavqMJ6NfDz-36">
          <mxGeometry y="26" width="160" height="26" as="geometry" />
        </mxCell>
        <mxCell id="ZtITf0q7EkavqMJ6NfDz-41" value="" style="endArrow=diamondThin;endFill=0;endSize=24;html=1;rounded=0;fontColor=#6666FF;entryX=1;entryY=0.5;entryDx=0;entryDy=0;exitX=0;exitY=0.5;exitDx=0;exitDy=0;" edge="1" parent="1" source="ZtITf0q7EkavqMJ6NfDz-26" target="ZtITf0q7EkavqMJ6NfDz-7">
          <mxGeometry width="160" relative="1" as="geometry">
            <mxPoint x="440" y="460" as="sourcePoint" />
            <mxPoint x="490" y="310" as="targetPoint" />
          </mxGeometry>
        </mxCell>
        <mxCell id="ZtITf0q7EkavqMJ6NfDz-42" value="" style="endArrow=diamondThin;endFill=1;endSize=24;html=1;rounded=0;fontColor=#6666FF;entryX=0.5;entryY=0;entryDx=0;entryDy=0;exitX=0.513;exitY=1;exitDx=0;exitDy=0;exitPerimeter=0;" edge="1" parent="1" source="ZtITf0q7EkavqMJ6NfDz-40" target="ZtITf0q7EkavqMJ6NfDz-23">
          <mxGeometry width="160" relative="1" as="geometry">
            <mxPoint x="470" y="150" as="sourcePoint" />
            <mxPoint x="770" y="180" as="targetPoint" />
          </mxGeometry>
        </mxCell>
        <mxCell id="ZtITf0q7EkavqMJ6NfDz-44" value="" style="endArrow=diamondThin;endFill=1;endSize=24;html=1;rounded=0;fontColor=#6666FF;entryX=0.5;entryY=0;entryDx=0;entryDy=0;exitX=0.519;exitY=1.038;exitDx=0;exitDy=0;exitPerimeter=0;" edge="1" parent="1" source="ZtITf0q7EkavqMJ6NfDz-40" target="ZtITf0q7EkavqMJ6NfDz-1">
          <mxGeometry width="160" relative="1" as="geometry">
            <mxPoint x="470" y="130" as="sourcePoint" />
            <mxPoint x="320" y="50" as="targetPoint" />
          </mxGeometry>
        </mxCell>
        <mxCell id="ZtITf0q7EkavqMJ6NfDz-45" value="ParamCallback" style="swimlane;fontStyle=1;align=center;verticalAlign=top;childLayout=stackLayout;horizontal=1;startSize=26;horizontalStack=0;resizeParent=1;resizeParentMax=0;resizeLast=0;collapsible=1;marginBottom=0;fontColor=#000000;fillColor=default;" vertex="1" parent="1">
          <mxGeometry x="80" y="30" width="160" height="34" as="geometry" />
        </mxCell>
        <mxCell id="ZtITf0q7EkavqMJ6NfDz-49" value="Extends" style="endArrow=block;endSize=16;endFill=0;html=1;rounded=0;fontColor=#000000;entryX=0.5;entryY=0;entryDx=0;entryDy=0;exitX=1;exitY=0.5;exitDx=0;exitDy=0;" edge="1" parent="1" source="ZtITf0q7EkavqMJ6NfDz-45" target="ZtITf0q7EkavqMJ6NfDz-36">
          <mxGeometry width="160" relative="1" as="geometry">
            <mxPoint x="270" y="40" as="sourcePoint" />
            <mxPoint x="430" y="40" as="targetPoint" />
          </mxGeometry>
        </mxCell>
        <mxCell id="ZtITf0q7EkavqMJ6NfDz-51" value="BindParamCallback" style="swimlane;fontStyle=1;align=center;verticalAlign=top;childLayout=stackLayout;horizontal=1;startSize=26;horizontalStack=0;resizeParent=1;resizeParentMax=0;resizeLast=0;collapsible=1;marginBottom=0;fontColor=#000000;fillColor=default;" vertex="1" parent="1">
          <mxGeometry x="40" y="90" width="230" height="60" as="geometry" />
        </mxCell>
        <mxCell id="ZtITf0q7EkavqMJ6NfDz-52" value="+Call(string key,Param pre,Param cur)" style="text;strokeColor=none;fillColor=none;align=left;verticalAlign=top;spacingLeft=4;spacingRight=4;overflow=hidden;rotatable=0;points=[[0,0.5],[1,0.5]];portConstraint=eastwest;fontColor=#6666FF;" vertex="1" parent="ZtITf0q7EkavqMJ6NfDz-51">
          <mxGeometry y="26" width="230" height="26" as="geometry" />
        </mxCell>
        <mxCell id="ZtITf0q7EkavqMJ6NfDz-53" value="" style="line;strokeWidth=1;fillColor=none;align=left;verticalAlign=middle;spacingTop=-1;spacingLeft=3;spacingRight=3;rotatable=0;labelPosition=right;points=[];portConstraint=eastwest;fontColor=#000000;" vertex="1" parent="ZtITf0q7EkavqMJ6NfDz-51">
          <mxGeometry y="52" width="230" height="8" as="geometry" />
        </mxCell>
        <mxCell id="ZtITf0q7EkavqMJ6NfDz-56" value="JobFactory" style="swimlane;fontStyle=1;align=center;verticalAlign=top;childLayout=stackLayout;horizontal=1;startSize=26;horizontalStack=0;resizeParent=1;resizeParentMax=0;resizeLast=0;collapsible=1;marginBottom=0;fontColor=#000000;fillColor=default;" vertex="1" parent="1">
          <mxGeometry x="30" y="770" width="290" height="110" as="geometry" />
        </mxCell>
        <mxCell id="ZtITf0q7EkavqMJ6NfDz-57" value="+ jobs:&lt;string, Job&gt;" style="text;strokeColor=none;fillColor=none;align=left;verticalAlign=top;spacingLeft=4;spacingRight=4;overflow=hidden;rotatable=0;points=[[0,0.5],[1,0.5]];portConstraint=eastwest;fontColor=#000000;" vertex="1" parent="ZtITf0q7EkavqMJ6NfDz-56">
          <mxGeometry y="26" width="290" height="24" as="geometry" />
        </mxCell>
        <mxCell id="ZtITf0q7EkavqMJ6NfDz-58" value="" style="line;strokeWidth=1;fillColor=none;align=left;verticalAlign=middle;spacingTop=-1;spacingLeft=3;spacingRight=3;rotatable=0;labelPosition=right;points=[];portConstraint=eastwest;fontColor=#000000;" vertex="1" parent="ZtITf0q7EkavqMJ6NfDz-56">
          <mxGeometry y="50" width="290" height="8" as="geometry" />
        </mxCell>
        <mxCell id="ZtITf0q7EkavqMJ6NfDz-59" value="+ registerJob(string,createJobFunc)" style="text;strokeColor=none;fillColor=none;align=left;verticalAlign=top;spacingLeft=4;spacingRight=4;overflow=hidden;rotatable=0;points=[[0,0.5],[1,0.5]];portConstraint=eastwest;fontColor=#000000;" vertex="1" parent="ZtITf0q7EkavqMJ6NfDz-56">
          <mxGeometry y="58" width="290" height="26" as="geometry" />
        </mxCell>
        <mxCell id="ZtITf0q7EkavqMJ6NfDz-60" value="+ createJob(string):Job" style="text;strokeColor=none;fillColor=none;align=left;verticalAlign=top;spacingLeft=4;spacingRight=4;overflow=hidden;rotatable=0;points=[[0,0.5],[1,0.5]];portConstraint=eastwest;fontColor=#000000;" vertex="1" parent="ZtITf0q7EkavqMJ6NfDz-56">
          <mxGeometry y="84" width="290" height="26" as="geometry" />
        </mxCell>
        <mxCell id="ZtITf0q7EkavqMJ6NfDz-61" value="" style="endArrow=diamondThin;endFill=0;endSize=24;html=1;rounded=0;fontColor=#6666FF;" edge="1" parent="1" source="ZtITf0q7EkavqMJ6NfDz-21" target="ZtITf0q7EkavqMJ6NfDz-56">
          <mxGeometry width="160" relative="1" as="geometry">
            <mxPoint x="170" y="700" as="sourcePoint" />
            <mxPoint x="460" y="1020" as="targetPoint" />
          </mxGeometry>
        </mxCell>
      </root>
    </mxGraphModel>
  </diagram>
</mxfile>
